# xmcd CD database file
#
# Track frame offsets:
#	182
#	13257
#	24617
#	43557
#	57212
#	73967
#	88337
#	101402
#	118660
#	136132
#	151685
#	164557
#
# Disc length: 2485 seconds
#
# Revision: 0
# Processed by: cddbd v1.4PL0 Copyright (c) Steve Scherf et al.
# Submitted via: CDex 1.50Beta3
#
DISCID=a009b30c
DTITLE=BJ Curtis and Nashville Express - Nashville Bound
DYEAR=1900
DGENRE=Country
TTITLE0=Doin a Little Thing for Me
TTITLE1=Here on my Own
TTITLE2=Closer to You
TTITLE3=Non-Stop Driving
TTITLE4=I Do What I Do
TTITLE5=Some Day Real Soon
TTITLE6=Rollin'
TTITLE7=Lord Take Me (I'm On My Knees)
TTITLE8=Know me by Heart
TTITLE9=Real Big Star
TTITLE10=Wheres it Gonna Go (From Here)
TTITLE11=Shadow in my Heart
EXTD=
EXTT0=
EXTT1=
EXTT2=
EXTT3=
EXTT4=
EXTT5=
EXTT6=
EXTT7=
EXTT8=
EXTT9=
EXTT10=
EXTT11=
PLAYORDER=
